# xmcd CD database file
#
# Track frame offsets:
#	150
#	21211
#	39513
#	53689
#	73627
#	87370
#	103964
#	120133
#	134474
#	152435
#	168323
#	183271
#
# Disc length: 2644 seconds
#
# Revision: 0
# Processed by: cddbd v1.5.2PL0 Copyright (c) Steve Scherf et al.
# Submitted via: jetAudio 7
#
DISCID=930a520c
DTITLE=Edson and Evandro - Edson and Evandro
DYEAR=1900
DGENRE=Country
TTITLE0=Teu Jogo
TTITLE1=Sonhos
TTITLE2=Sexta-feira
TTITLE3=Quando o medo é maior que a paixão
TTITLE4=Festa louca da paixão
TTITLE5=A saudade vem
TTITLE6=Deixa eu te amar
TTITLE7=Coisinha linda
TTITLE8=O bicho vai pegar
TTITLE9=Um erro a mais
TTITLE10=Pimenta malagueta
TTITLE11=Armadilha
EXTD=
EXTT0=
EXTT1=
EXTT2=
EXTT3=
EXTT4=
EXTT5=
EXTT6=
EXTT7=
EXTT8=
EXTT9=
EXTT10=
EXTT11=
PLAYORDER=
